#!OML:ASF F:\VICON\USERDATA\INSTALL\rory3\rory3.ASF
:FULLY-SPECIFIED
:DEGREES
290
root 11.2226 17.5398 -4.00919 -248.911 89.2585 -246.108
lowerback 12.9038 -0.345402 -5.29034
upperback 1.1956 -1.1442 0.169312
thorax -5.87087 -0.403742 3.36829
lowerneck -12.3927 -9.06809 -14.1561
upperneck 32.6078 -13.7431 15.0111
head 15.8124 -5.47379 6.52661
rclavicle -1.10077e-014 -1.66979e-014
rhumerus -44.7119 -21.108 -68.4243
rradius 37.283
rwrist 2.83156
rhand -17.9208 8.00511
rfingers 7.12502
rthumb 8.34679 -21.81
lclavicle -1.10077e-014 -1.66979e-014
lhumerus -29.8145 6.93266 81.3093
lradius 27.6844
lwrist -9.73793
lhand -15.853 25.0254
lfingers 7.12502
lthumb 10.3419 54.7511
rfemur -11.5285 -2.76706 20.2555
rtibia 41.7223
rfoot -23.7247 3.91293
rtoes -3.1369
lfemur -12.9342 0.913007 -23.3743
ltibia 34.0021
lfoot -14.7859 -18.8407
ltoes 8.37021
291
root 11.2262 17.5454 -3.97474 -271.925 89.2244 -269.035
lowerback 12.9787 -0.306791 -5.41031
upperback 1.21471 -1.1164 0.112756
thorax -5.89377 -0.386898 3.37262
lowerneck -12.3697 -9.01851 -14.2017
upperneck 32.5993 -13.6678 15.0361
head 15.793 -5.44741 6.56158
rclavicle -1.20016e-014 -4.77083e-015
rhumerus -44.6928 -20.8432 -68.8826
rradius 37.131
rwrist 2.81262
rhand -18.4875 7.99176
rfingers 7.12502
rthumb 7.79983 -21.8444
lclavicle -1.20016e-014 -4.77083e-015
lhumerus -29.7764 7.08089 81.1998
lradius 27.5525
lwrist -9.79012
lhand -16.2813 25.4517
lfingers 7.12502
lthumb 9.92874 55.1976
rfemur -11.7502 -3.36637 20.0944
rtibia 42.1959
rfoot -23.9929 4.64115
rtoes -6.72794
lfemur -12.7821 0.623574 -23.4708
ltibia 33.9715
lfoot -14.6238 -18.1062
ltoes 8.872
292
root 11.2282 17.5527 -3.94142 -293.032 89.0787 -290.126
lowerback 12.9673 -0.230206 -5.47146
upperback 1.22672 -1.02646 0.040497
thorax -5.88369 -0.342404 3.31452
lowerneck -12.2738 -9.04368 -14.4279
upperneck 32.5095 -13.7205 15.2416
head 15.7843 -5.482 6.68262
rclavicle -2.41026e-015 6.55989e-015
rhumerus -44.7045 -20.7682 -69.2294
rradius 36.9718
rwrist 2.79532
rhand -18.572 8.17675
rfingers 7.12502
rthumb 7.7183 -21.6624
lclavicle -2.41026e-015 6.55989e-015
lhumerus -29.6662 7.16096 81.1263
lradius 27.3668
lwrist -9.95238
lhand -16.6101 25.495
lfingers 7.12502
lthumb 9.61158 55.2558
rfemur -12.0554 -3.82567 19.8809
rtibia 42.7013
rfoot -24.3596 5.75908
rtoes -9.4514
lfemur -12.695 0.297375 -23.5752
ltibia 33.887
lfoot -14.6962 -16.8951
ltoes 7.54551
293
root 11.2239 17.5559 -3.9045 -308.495 88.8165 -305.565
lowerback 13.0074 -0.113334 -5.59988
upperback 1.25189 -0.89361 -0.0105378
thorax -5.89096 -0.274441 3.31019
lowerneck -12.1996 -9.14042 -14.332
upperneck 32.3625 -13.8534 15.1198
head 15.699 -5.54869 6.56849
rclavicle 8.87077e-015 6.16232e-015
rhumerus -44.6825 -20.9184 -69.5024
rradius 36.8046
rwrist 2.77586
rhand -18.2118 8.17837
rfingers 7.12502
rthumb 8.06593 -21.6477
lclavicle 8.87077e-015 6.16232e-015
lhumerus -29.4283 7.18535 81.0844
lradius 27.1041
lwrist -10.0637
lhand -16.6389 25.5767
lfingers 7.12502
lthumb 9.58379 55.3387
rfemur -12.3425 -4.09538 19.6393
rtibia 43.2201
rfoot -24.7509 7.05472
rtoes -11.3481
lfemur -12.5919 0.103867 -23.6684
ltibia 33.7734
lfoot -14.9447 -15.7115
ltoes 4.63744
294
root 11.2209 17.5618 -3.86781 -317.858 88.4236 -314.907
lowerback 13.0355 -0.0264198 -5.75071
upperback 1.27249 -0.806514 -0.120018
thorax -5.89275 -0.228976 3.26425
lowerneck -12.2656 -9.23715 -14.0084
upperneck 32.4039 -13.9717 14.767
head 15.6865 -5.59776 6.32186
rclavicle 4.96962e-016 7.55382e-015
rhumerus -44.5895 -21.0572 -69.9159
rradius 36.5251
rwrist 3.02212
rhand -17.857 8.15768
rfingers 7.12502
rthumb 8.40832 -21.655
lclavicle 4.96962e-016 7.55382e-015
lhumerus -29.1743 7.49843 80.8422
lradius 26.7619
lwrist -10.2581
lhand -16.4473 25.2765
lfingers 7.12502
lthumb 9.7686 55.03
rfemur -12.6592 -4.453 19.3255
rtibia 43.7448
rfoot -25.1517 8.26272
rtoes -13.8128
lfemur -12.454 -0.101371 -23.7977
ltibia 33.6615
lfoot -15.1093 -14.8186
ltoes 2.61359
295
root 11.2179 17.5694 -3.83316 -327.068 88.0739 -324.2
lowerback 12.9589 0.0515014 -5.66471
upperback 1.26535 -0.694904 -0.264323
thorax -5.87161 -0.178475 3.04206
lowerneck -12.3553 -9.35122 -13.828
upperneck 32.518 -14.154 14.6285
head 15.7694 -5.66324 6.19398
rclavicle -9.14409e-015 -3.18055e-015
rhumerus -44.4923 -21.1299 -70.4805
rradius 36.1727
rwrist 3.51569
rhand -17.9761 8.32585
rfingers 7.12502
rthumb 8.29342 -21.4914
lclavicle -9.14409e-015 -3.18055e-015
lhumerus -28.9107 7.74454 80.5488
lradius 26.4113
lwrist -10.5116
lhand -16.2186 24.8426
lfingers 7.12502
lthumb 9.98927 54.5855
rfemur -13.0832 -4.7248 19.159
rtibia 44.2576
rfoot -25.3823 9.57927
rtoes -15.53
lfemur -12.428 -0.404834 -23.7577
ltibia 33.5393
lfoot -15.2042 -13.7754
ltoes 0.774343
296
root 11.2141 17.5794 -3.79938 -334.795 87.7557 -331.899
lowerback 13.0347 0.105116 -5.5415
upperback 1.24141 -0.617421 -0.349486
thorax -5.94886 -0.141816 2.86958
lowerneck -12.2921 -9.39362 -13.6529
upperneck 32.5856 -14.2465 14.5326
head 15.778 -5.69263 6.10615
rclavicle 5.98839e-015 1.03368e-014
rhumerus -44.4529 -20.7883 -71.1329
rradius 35.9773
rwrist 3.69164
rhand -18.0713 8.32636
rfingers 7.12502
rthumb 8.20156 -21.4945
lclavicle 5.98839e-015 1.03368e-014
lhumerus -28.7812 7.94889 80.3137
lradius 26.1448
lwrist -10.7166
lhand -16.3995 25.0754
lfingers 7.12502
lthumb 9.81476 54.8267
rfemur -13.3326 -4.92622 19.0782
rtibia 44.7196
rfoot -25.6956 10.4136
rtoes -18.4311
lfemur -12.2779 -0.951875 -23.6231
ltibia 33.4057
lfoot -15.1337 -12.5954
ltoes -0.103957
297
root 11.212 17.5938 -3.7624 -341.011 87.3063 -338.096
lowerback 13.1231 0.218139 -5.56323
upperback 1.17842 -0.478102 -0.304777
thorax -6.07729 -0.0685219 2.90559
lowerneck -12.2268 -9.41672 -13.7736
upperneck 32.6991 -14.2748 14.5572
head 15.841 -5.71694 6.14422
rclavicle 4.96962e-015 1.15295e-014
rhumerus -44.4655 -20.4117 -71.5125
rradius 35.8542
rwrist 3.86207
rhand -17.7286 8.39326
rfingers 7.12502
rthumb 8.53228 -21.4144
lclavicle 4.96962e-015 1.15295e-014
lhumerus -28.7767 8.40639 80.2043
lradius 25.9643
lwrist -11.1247
lhand -16.8687 25.6161
lfingers 7.12502
lthumb 9.36204 55.3881
rfemur -13.5602 -5.05654 18.9555
rtibia 45.117
rfoot -25.8572 11.0413
rtoes -19.5296
lfemur -12.1372 -1.39431 -23.4792
ltibia 33.2825
lfoot -15.0016 -11.6181
ltoes -0.552823
298
root 11.2107 17.6039 -3.72204 -345.573 86.715 -342.676
lowerback 13.1177 0.378394 -5.64987
upperback 1.11308 -0.281195 -0.282505
thorax -6.16146 0.0330321 2.94285
lowerneck -12.1303 -9.44176 -13.8625
upperneck 32.823 -14.3218 14.5956
head 15.9045 -5.74406 6.1813
rclavicle -3.67752e-015 3.97569e-016
rhumerus -44.5448 -20.2763 -71.7896
rradius 35.7551
rwrist 4.27681
rhand -17.2193 8.50637
rfingers 7.12502
rthumb 9.02377 -21.2806
lclavicle -3.67752e-015 3.97569e-016
lhumerus -28.8158 8.55757 80.1581
lradius 25.8555
lwrist -11.0184
lhand -17.3276 26.0542
lfingers 7.12502
lthumb 8.91926 55.8457
rfemur -13.7903 -5.17818 18.7475
rtibia 45.4459
rfoot -25.6412 11.6995
rtoes -16.7182
lfemur -12.0231 -1.40045 -23.2989
ltibia 33.1492
lfoot -14.9488 -11.0208
ltoes -1.37604
299
root 11.2086 17.6069 -3.68308 -349.127 86.166 -346.21
lowerback 13.1457 0.516542 -5.63966
upperback 1.06991 -0.102001 -0.29223
thorax -6.23986 0.122748 2.89438
lowerneck -12.0462 -9.47887 -13.6217
upperneck 32.9054 -14.3824 14.3771
head 15.886 -5.76574 6.03289
rclavicle -1.00138e-014 -3.18055e-015
rhumerus -44.6163 -20.3557 -72.0245
rradius 35.5671
rwrist 5.06916
rhand -16.8247 8.58721
rfingers 7.12502
rthumb 9.40452 -21.183
lclavicle -1.00138e-014 -3.18055e-015
lhumerus -28.8174 8.78557 80.0185
lradius 25.7108
lwrist -10.9771
lhand -17.3221 26.0138
lfingers 7.12502
lthumb 8.92456 55.8051
rfemur -13.9274 -5.51872 18.4894
rtibia 45.6865
rfoot -25.4715 11.5418
rtoes -13.8053
lfemur -11.8634 -1.21687 -23.069
ltibia 32.9783
lfoot -15.0419 -10.4904
ltoes -3.01529
